<mxfile host="Electron" agent="Mozilla/5.0 (Windows NT 10.0; Win64; x64) AppleWebKit/537.36 (KHTML, like Gecko) draw.io/26.0.4 Chrome/128.0.6613.186 Electron/32.2.5 Safari/537.36" version="26.0.4">
  <diagram name="PÃ¡gina-1" id="FFMdGfwOoUpfTf8sLjiL">
    <mxGraphModel dx="724" dy="428" grid="1" gridSize="10" guides="1" tooltips="1" connect="1" arrows="1" fold="1" page="1" pageScale="1" pageWidth="827" pageHeight="1169" math="0" shadow="0">
      <root>
        <mxCell id="0" />
        <mxCell id="1" parent="0" />
        <mxCell id="oz5PeP0d_qX-T1ShCsJo-3" value="" style="edgeStyle=orthogonalEdgeStyle;rounded=0;orthogonalLoop=1;jettySize=auto;html=1;" parent="1" source="oz5PeP0d_qX-T1ShCsJo-1" target="oz5PeP0d_qX-T1ShCsJo-2" edge="1">
          <mxGeometry relative="1" as="geometry" />
        </mxCell>
        <mxCell id="oz5PeP0d_qX-T1ShCsJo-1" value="Analysis of the SDN network infrastructure and the security vulnerabilities of its components" style="rounded=1;whiteSpace=wrap;html=1;" parent="1" vertex="1">
          <mxGeometry x="80" y="180" width="190" height="90" as="geometry" />
        </mxCell>
        <mxCell id="oz5PeP0d_qX-T1ShCsJo-5" value="" style="edgeStyle=orthogonalEdgeStyle;rounded=0;orthogonalLoop=1;jettySize=auto;html=1;" parent="1" source="oz5PeP0d_qX-T1ShCsJo-2" target="oz5PeP0d_qX-T1ShCsJo-4" edge="1">
          <mxGeometry relative="1" as="geometry" />
        </mxCell>
        <mxCell id="oz5PeP0d_qX-T1ShCsJo-2" value="Implementation of the general SDN/MPLS differentiated services network environment" style="rounded=1;whiteSpace=wrap;html=1;" parent="1" vertex="1">
          <mxGeometry x="314" y="180" width="200" height="90" as="geometry" />
        </mxCell>
        <mxCell id="oz5PeP0d_qX-T1ShCsJo-7" style="edgeStyle=orthogonalEdgeStyle;rounded=0;orthogonalLoop=1;jettySize=auto;html=1;entryX=0.5;entryY=0;entryDx=0;entryDy=0;" parent="1" source="oz5PeP0d_qX-T1ShCsJo-4" target="oz5PeP0d_qX-T1ShCsJo-6" edge="1">
          <mxGeometry relative="1" as="geometry">
            <Array as="points">
              <mxPoint x="650" y="300" />
              <mxPoint x="180" y="300" />
            </Array>
          </mxGeometry>
        </mxCell>
        <mxCell id="oz5PeP0d_qX-T1ShCsJo-4" value="Planning and execution of DoS attacks on the general network environment infrastructure" style="rounded=1;whiteSpace=wrap;html=1;" parent="1" vertex="1">
          <mxGeometry x="550" y="180" width="200" height="90" as="geometry" />
        </mxCell>
        <mxCell id="oz5PeP0d_qX-T1ShCsJo-10" value="" style="edgeStyle=orthogonalEdgeStyle;rounded=0;orthogonalLoop=1;jettySize=auto;html=1;" parent="1" source="oz5PeP0d_qX-T1ShCsJo-6" target="oz5PeP0d_qX-T1ShCsJo-8" edge="1">
          <mxGeometry relative="1" as="geometry" />
        </mxCell>
        <mxCell id="oz5PeP0d_qX-T1ShCsJo-6" value="Analysis of the repercussions caused by the attacks on the general SDN environment and proposal of a security mechanism" style="rounded=1;whiteSpace=wrap;html=1;" parent="1" vertex="1">
          <mxGeometry x="80" y="330" width="200" height="90" as="geometry" />
        </mxCell>
        <mxCell id="oz5PeP0d_qX-T1ShCsJo-11" value="" style="edgeStyle=orthogonalEdgeStyle;rounded=0;orthogonalLoop=1;jettySize=auto;html=1;" parent="1" source="oz5PeP0d_qX-T1ShCsJo-8" target="oz5PeP0d_qX-T1ShCsJo-9" edge="1">
          <mxGeometry relative="1" as="geometry" />
        </mxCell>
        <mxCell id="oz5PeP0d_qX-T1ShCsJo-8" value="Deployment of the security mechanism in the DoS attack environment" style="rounded=1;whiteSpace=wrap;html=1;" parent="1" vertex="1">
          <mxGeometry x="314" y="330" width="200" height="90" as="geometry" />
        </mxCell>
        <mxCell id="oz5PeP0d_qX-T1ShCsJo-9" value="Results and performance evaluation of the security mechanism in the SDN network" style="rounded=1;whiteSpace=wrap;html=1;" parent="1" vertex="1">
          <mxGeometry x="560" y="330" width="200" height="90" as="geometry" />
        </mxCell>
      </root>
    </mxGraphModel>
  </diagram>
</mxfile>
